<svg width="600" height="600" viewBox="0 0 600 600" fill="none" xmlns="http://www.w3.org/2000/svg">
<path d="M513.836 513.155C486.571 492.438 439.938 441.034 501.348 360.338C577.289 260.549 486.342 219.608 399.168 223.882C329.035 227.32 250.106 139.15 171.371 154.908C66.8653 175.825 134.722 265.819 63.8634 314.305C3.43359 355.656 29.3784 481.649 108.027 513.155H513.836Z" fill="#0F69FA"/>
<path d="M513.836 513.155C486.571 492.438 439.938 441.034 501.348 360.338C577.289 260.549 486.342 219.608 399.168 223.882C329.035 227.32 250.106 139.15 171.371 154.908C66.8653 175.825 134.722 265.819 63.8634 314.305C3.43359 355.656 29.3784 481.649 108.027 513.155H513.836Z" fill="white" fill-opacity="0.75"/>
<path d="M563.05 330.158C562.628 315.361 548.844 309.622 539.644 320.334C534.365 326.479 529.333 335.294 528.391 347.083C526.285 373.466 549.367 365.822 557.992 351.696C561.671 345.672 563.263 337.638 563.05 330.158Z" fill="#CFE6F4"/>
<path d="M309.06 149.683C294.515 146.932 285.96 159.17 294.458 170.449C299.333 176.92 306.87 183.719 318.185 187.159C343.507 194.857 340.974 170.675 329.018 159.229C323.92 154.348 316.412 151.075 309.06 149.683Z" fill="#CFE6F4"/>
<path d="M68.655 285.264C74.475 271.651 64.3655 260.663 51.5217 266.533C44.1534 269.9 35.8903 275.795 30.0942 286.104C17.1239 309.175 41.2847 311.908 55.0355 302.698C60.9014 298.77 65.7135 292.144 68.655 285.264Z" fill="#CFE6F4"/>
<path d="M549.752 517.187C549.752 526.252 438.131 533.6 300.44 533.6C162.749 533.6 51.1276 526.252 51.1276 517.187C51.1276 508.125 162.749 500.776 300.44 500.776C438.131 500.776 549.752 508.125 549.752 517.187Z" fill="#CFE6F4"/>
<path d="M543.034 382.538C527.77 397.798 544.796 399.091 533.596 410.616C523.387 421.12 508.322 410.896 509.326 436.549C509.544 442.162 505.46 446.326 499.73 448.458C490.302 451.967 481.078 448.722 475.398 442.272C474.935 441.752 474.497 441.208 474.085 440.642C469.775 434.759 468.202 426.785 471.396 418.882C473.988 412.47 478.578 406.162 486.714 403.646C505.799 397.747 495.205 372.47 511.337 371.362C530.79 370.022 531.488 362.887 545.294 353.268C559.93 343.072 563.723 361.861 543.034 382.538Z" fill="#3A65B9"/>
<path d="M536.19 374.202C535.764 374.641 500.37 411.133 475.398 442.272C474.935 441.752 474.497 441.208 474.085 440.642C499.126 409.486 534.298 373.218 534.726 372.778C535.121 372.374 535.766 372.365 536.171 372.758C536.575 373.151 536.584 373.798 536.19 374.202Z" fill="#3751AB"/>
<path d="M546.953 433.478C523.038 447.557 543.816 454.65 526.164 465.388C510.073 475.175 494.614 457.598 487.6 489.855C486.066 496.91 479.64 500.778 471.823 501.588C458.957 502.919 448.52 495.909 443.525 486.052C443.118 485.256 442.747 484.436 442.417 483.601C438.944 474.888 439.555 464.458 446.076 455.647C451.368 448.5 459.114 442.126 470.05 441.617C495.706 440.42 490.66 405.544 511.097 409.357C535.744 413.956 538.909 405.299 559.193 397.772C580.694 389.79 579.363 414.401 546.953 433.478Z" fill="#3F77C4"/>
<path d="M541.12 420.898C540.446 421.307 484.638 455.333 443.525 486.052C443.118 485.256 442.747 484.436 442.417 483.601C483.62 452.881 539.08 419.063 539.755 418.654C540.376 418.276 541.182 418.475 541.56 419.093C541.936 419.713 541.738 420.521 541.12 420.898Z" fill="#3A65B9"/>
<path d="M80.55 208.219C88.7555 228.181 72.5457 222.815 78.4392 237.764C83.8126 251.39 101.653 247.762 90.842 271.049C88.4771 276.143 90.6413 281.558 95.1066 285.734C102.455 292.604 112.216 293.165 119.944 289.403C120.571 289.102 121.186 288.768 121.783 288.404C128.028 284.638 132.552 277.885 132.65 269.362C132.73 262.446 130.925 254.855 124.387 249.4C109.049 236.602 128.566 217.36 114.107 210.12C96.6718 201.386 98.777 194.534 89.7431 180.337C80.168 165.288 69.4284 181.165 80.55 208.219Z" fill="#0F69FA"/>
<path d="M90.0778 203.162C90.3019 203.732 108.9 251.046 119.944 289.403C120.571 289.102 121.186 288.768 121.783 288.404C110.683 250.004 92.2031 202.984 91.9773 202.412C91.77 201.888 91.1771 201.631 90.6521 201.839C90.1276 202.045 89.8711 202.638 90.0778 203.162Z" fill="#3751AB"/>
<path d="M57.1832 260.364C74.489 282.058 52.5487 281.258 65.1984 297.595C76.7292 312.485 97.4493 301.592 92.4731 334.225C91.3847 341.365 96.0032 347.273 103.017 350.824C114.557 356.663 126.81 353.845 134.998 346.424C135.662 345.826 136.301 345.192 136.908 344.53C143.264 337.633 146.422 327.673 143.478 317.116C141.09 308.549 136.133 299.827 126.102 295.444C102.567 285.158 119.743 254.388 99.2921 250.648C74.6292 246.134 74.7656 236.918 58.5108 222.64C41.2805 207.503 33.7294 230.964 57.1832 260.364Z" fill="#0F69FA"/>
<path d="M67.1277 250.698C67.6097 251.321 107.575 303.042 134.998 346.424C135.662 345.826 136.301 345.192 136.908 344.53C109.402 301.116 69.6872 249.712 69.2034 249.089C68.759 248.515 67.9345 248.411 67.3613 248.855C66.7879 249.3 66.6843 250.124 67.1277 250.698Z" fill="#3A65B9"/>
<path d="M173.905 241.478C180.876 236.705 198.337 248.48 207.467 262.778L199.368 240.089C196.436 237.546 191.304 233.978 183.284 231.136C170.812 226.716 158.311 219.791 165.296 215.009C171.841 210.526 187.63 220.632 197.093 233.717L186.691 204.578C184.757 203.09 181.812 201.282 177.602 199.792C169.744 197.005 161.864 192.641 166.267 189.626C170.087 187.012 178.902 192.278 184.922 199.621L181.55 190.177C180.008 187.433 177.816 183.512 174.36 179.936C166.352 171.652 160.298 162.332 166.474 160.981C172.655 159.63 182.772 175.865 184.363 190.532L186.098 195.392C184.751 184.724 188.587 171.806 193.936 171.35C199.252 170.896 195.918 179.261 191.598 186.395C188.31 191.825 187.402 196.134 187.159 198.364L195.353 221.317C193.268 204.416 199.343 184.034 207.806 183.311C216.24 182.59 210.95 195.864 204.097 207.184C198.918 215.737 197.459 222.541 197.06 226.1L206.886 253.626C205.144 236.924 211.117 216.655 219.45 216.589C225.874 216.539 223.907 225.608 216.234 238.412C211.02 247.114 209.352 254.927 208.819 259.043L213.448 272.008C212.672 272.556 211.866 272.843 211.064 272.857L209.224 267.698C206.622 265.182 201.203 260.906 191.893 257.606C179.422 253.186 166.921 246.262 173.905 241.478Z" fill="#0F69FA"/>
<path d="M112.563 433.775C105.412 438.275 109.276 458.976 118.767 473.038L101.166 456.586C99.9984 452.886 98.7652 446.759 99.345 438.27C100.247 425.069 98.8623 410.845 91.6974 415.352C84.9826 419.576 87.9783 438.082 96.2231 451.967L73.6215 430.838C73.0247 428.472 72.5368 425.051 72.841 420.596C73.4091 412.276 72.5368 403.313 68.0218 406.153C64.1026 408.619 65.4319 418.802 69.7758 427.244L62.4507 420.396C60.5457 417.892 57.8199 414.32 55.9126 409.727C51.4931 399.086 45.3487 389.826 41.6541 394.956C37.9566 400.091 48.8326 415.828 61.6589 423.12L65.4281 426.643C56.1736 421.166 42.7969 419.55 40.2511 424.277C37.7208 428.974 46.7231 429.24 54.9858 428.113C61.2755 427.254 65.5899 428.134 67.7326 428.797L85.5376 445.44C70.8581 436.808 49.741 434.28 45.7126 441.76C41.6976 449.212 55.9819 449.634 69.0924 447.845C79.0003 446.494 85.8229 447.859 89.2476 448.909L110.599 468.866C95.9668 460.628 74.9926 458.053 71.6199 465.673C69.0202 471.546 78.1242 473.347 92.9226 471.397C102.98 470.072 110.813 471.648 114.801 472.794L124.858 482.195C125.669 481.702 126.252 481.075 126.584 480.347L122.582 476.605C121.308 473.219 119.538 466.547 120.211 456.691C121.112 443.49 119.728 429.268 112.563 433.775Z" fill="#0F69FA"/>
<path d="M473.503 248.272V511.945H91.7906V248.272H473.503Z" fill="#0F69FA"/>
<path d="M473.503 248.272V511.945H91.7906V248.272H473.503Z" fill="white" fill-opacity="0.25"/>
<path d="M473.491 248.281V265.184L282.648 434.336L91.7911 265.184V248.281L282.635 418.013L473.491 248.281Z" fill="#0F69FA"/>
<path d="M473.491 248.281V265.184L282.648 434.336L91.7911 265.184V248.281L282.635 418.013L473.491 248.281Z" fill="white" fill-opacity="0.1"/>
<path d="M245.874 384.727L102.846 511.945H91.7906V505.224L237.652 375.488L245.874 384.727Z" fill="#0F69FA"/>
<path d="M245.874 384.727L102.846 511.945H91.7906V505.224L237.652 375.488L245.874 384.727Z" fill="white" fill-opacity="0.1"/>
<path d="M473.503 506.117V511.945H461.447L318.42 384.727L326.641 375.488L473.503 506.117Z" fill="#0F69FA"/>
<path d="M473.503 506.117V511.945H461.447L318.42 384.727L326.641 375.488L473.503 506.117Z" fill="white" fill-opacity="0.1"/>
<path d="M91.7794 248.27L282.636 418.014L473.492 248.27H91.7794Z" fill="#0F69FA"/>
<path d="M91.7794 248.27L282.636 418.014L473.492 248.27H91.7794Z" fill="white" fill-opacity="0.5"/>
<path d="M368.192 224.524L373.063 234.946L362.767 235.105L358.794 225.622L368.192 224.524Z" fill="#F49477"/>
<path d="M369.822 234.294C369.822 234.294 371.935 231.452 373.616 231.575C375.295 231.696 388.251 241.997 392.69 242.848C397.129 243.698 396.719 248.22 394.86 248.22C389.51 248.22 359.987 248.27 359.987 248.27C359.987 248.27 359.095 237.709 360.225 234.559C361.355 231.41 366.35 235.039 369.822 234.294Z" fill="#3F77C4"/>
<path d="M376.982 241.482C376.825 241.529 376.65 241.514 376.496 241.427C376.199 241.256 376.094 240.877 376.265 240.578C376.321 240.479 377.676 238.124 379.501 237.205C381.928 235.979 383.822 237.352 383.901 237.41C384.176 237.614 384.234 238.004 384.029 238.28C383.825 238.555 383.435 238.614 383.16 238.408C383.108 238.372 381.79 237.446 380.062 238.315C378.575 239.065 377.357 241.174 377.345 241.195C377.262 241.339 377.13 241.438 376.982 241.482Z" fill="white"/>
<path d="M375.13 239.731C374.974 239.778 374.797 239.764 374.644 239.676C374.345 239.506 374.24 239.126 374.411 238.828C374.468 238.728 375.824 236.374 377.648 235.453C380.077 234.227 381.968 235.6 382.048 235.658C382.325 235.864 382.381 236.252 382.176 236.528C381.972 236.804 381.582 236.862 381.306 236.657C381.254 236.62 379.936 235.694 378.208 236.564C376.715 237.317 375.504 239.422 375.492 239.443C375.409 239.587 375.277 239.687 375.13 239.731Z" fill="white"/>
<path d="M379.495 242.903C379.338 242.95 379.163 242.935 379.009 242.848C378.712 242.677 378.607 242.298 378.775 242C378.833 241.9 380.189 239.545 382.014 238.626C384.443 237.398 386.334 238.771 386.414 238.831C386.689 239.035 386.747 239.425 386.542 239.7C386.338 239.976 385.948 240.034 385.673 239.828C385.621 239.792 384.301 238.866 382.574 239.736C381.079 240.488 379.87 242.594 379.858 242.615C379.775 242.76 379.643 242.858 379.495 242.903Z" fill="white"/>
<path d="M371.125 227.921L366.565 229.409L364.028 229.559L359.671 229.814C353.912 225.259 338.377 211.554 335.351 203.473C335.351 203.473 315.364 249.952 287.73 249.952C285.937 249.952 290.675 226.824 295.18 222.014C295.18 222.014 320.651 174.544 337.164 179.581C344.558 181.84 352.038 192.604 371.125 227.921Z" fill="#343054"/>
<path d="M366.565 229.409L364.028 229.559C347.077 216.724 339.226 205.854 335.61 198.892C335.485 198.65 335.282 198.571 335.146 198.575C335.027 198.577 334.942 198.643 334.886 198.781C326.77 217.889 317.028 229.356 310.285 235.615C302.938 242.434 297.562 244.681 297.34 244.776L297.028 244.018L296.718 243.262C296.77 243.239 302.104 240.997 309.252 234.342C315.854 228.198 325.402 216.93 333.382 198.139C333.685 197.417 334.325 196.968 335.083 196.939C335.9 196.906 336.667 197.377 337.063 198.137C340.708 205.158 348.781 216.252 366.565 229.409Z" fill="#1E1D33"/>
<path d="M355.1 226.706C355.825 228.062 357.072 229.979 358.264 230.905C358.264 230.905 368.024 230.454 372.772 228.07L370.64 223.108C370.64 223.108 362.872 225.943 355.1 226.706Z" fill="#4C4685"/>
<path d="M367.876 160.075C353.995 165.728 342.901 168.571 333.461 169.741L333.442 169.738C333.32 169.741 331.098 169.922 330.244 169.888C327.701 169.8 324.257 169.224 320.77 167.594C318.284 166.434 314.735 163.435 311.022 159.86C306.424 155.424 301.576 150.101 298.222 146.298C295.613 143.344 293.906 141.306 293.906 141.306C296.221 137.862 301.348 134.73 305.809 133.054C305.809 133.054 315.119 148.556 329.224 156.169C329.99 156.588 330.775 156.974 331.57 157.333C334.783 156.812 343.477 156.416 347.248 156.148C357.466 155.422 365.808 153.649 365.808 153.649L367.876 160.075Z" fill="#0F69FA"/>
<path d="M367.876 160.075C353.995 165.728 342.901 168.571 333.461 169.741L333.442 169.738C333.32 169.741 331.098 169.922 330.244 169.888C327.701 169.8 324.257 169.224 320.77 167.594C318.284 166.434 314.735 163.435 311.022 159.86C306.424 155.424 301.576 150.101 298.222 146.298C295.613 143.344 293.906 141.306 293.906 141.306C296.221 137.862 301.348 134.73 305.809 133.054C305.809 133.054 315.119 148.556 329.224 156.169C329.99 156.588 330.775 156.974 331.57 157.333C334.783 156.812 343.477 156.416 347.248 156.148C357.466 155.422 365.808 153.649 365.808 153.649L367.876 160.075Z" fill="black" fill-opacity="0.05"/>
<path d="M365.456 153.138C365.456 153.138 367.388 148.255 370.019 146.862C372.647 145.469 380.131 140.563 381.728 142.031C383.327 143.5 382.996 150.548 376.286 156.44C372.013 160.194 367.708 160.034 367.708 160.034L365.456 153.138Z" fill="#F49477"/>
<path d="M382.207 146.516L371.161 156.835C370.746 157.225 369.996 157.338 369.484 157.09L362.714 153.816C362.504 153.713 362.366 153.566 362.308 153.401L362.292 153.347L361.96 152.215L363.755 151.534L381.134 144.932L382.076 144.577L382.429 145.774L382.457 145.855L382.46 145.885C382.5 146.095 382.416 146.323 382.207 146.516Z" fill="#1E1D33"/>
<path d="M381.134 144.932L363.755 151.534L373.584 142.35C373.998 141.962 374.749 141.847 375.258 142.094L381.134 144.932Z" fill="#252334"/>
<path d="M369.148 155.942L362.374 152.668C361.864 152.42 361.784 151.907 362.2 151.52L373.246 141.199C373.661 140.813 374.41 140.7 374.921 140.947L381.694 144.222C382.204 144.469 382.282 144.982 381.869 145.369L370.822 155.689C370.408 156.076 369.658 156.188 369.148 155.942Z" fill="#343054"/>
<path d="M370.583 154.223C370.366 154.223 370.152 154.181 369.97 154.093L364.722 151.555C364.211 151.308 364.133 150.796 364.547 150.408L373.138 142.382C373.404 142.134 373.808 141.998 374.198 141.998C374.416 141.998 374.629 142.04 374.813 142.129L380.059 144.666C380.57 144.913 380.648 145.427 380.233 145.813L371.642 153.84C371.377 154.088 370.973 154.223 370.583 154.223Z" fill="#4E4E8A"/>
<path d="M382.465 145.883L382.46 145.885L382.457 145.855L382.465 145.883Z" fill="#252334"/>
<path d="M369.829 144.392C369.829 144.392 371.402 144.637 371.563 145.991C371.724 147.343 370.26 146.804 369.319 146.508C368.376 146.21 367.529 146.508 367.4 146.662C366.989 147.146 367.06 143.992 369.829 144.392Z" fill="#F49477"/>
<path d="M376.864 151.739C376.864 151.739 379.332 147.68 381.225 145.464C382.485 143.988 383.129 146.13 382.267 147.624C381.403 149.117 379.702 152.159 376.864 151.739Z" fill="#F49477"/>
<path d="M261.827 224.898L256.355 189.622L256.031 187.53L256.068 185.956L257.288 135.98L271.153 131.294L271.896 131.042L275.009 129.988L277.477 129.155L292.116 131.17L294.499 131.497L295.338 131.612L305.812 133.054C305.909 166.184 302.729 173.341 308.85 200.291C311.933 210.456 300.626 246.456 261.827 224.898Z" fill="#0F69FA"/>
<path d="M261.827 224.898L256.355 189.622L256.031 187.53L256.068 185.956L257.288 135.98L271.153 131.294L271.896 131.042L275.009 129.988L277.477 129.155L292.116 131.17L294.499 131.497L295.338 131.612L305.812 133.054C305.909 166.184 302.729 173.341 308.85 200.291C311.933 210.456 300.626 246.456 261.827 224.898Z" fill="white" fill-opacity="0.25"/>
<path d="M269.622 215.873L269.624 215.872C280.586 212.81 288.584 205.244 293.363 199.436C298.531 193.154 301.158 187.506 301.184 187.45C301.31 187.175 301.19 186.85 300.916 186.724C300.641 186.598 300.316 186.718 300.188 186.991C300.163 187.046 297.583 192.589 292.499 198.763C287.822 204.442 280.007 211.836 269.329 214.817C269.039 214.898 268.868 215.2 268.95 215.491C269.03 215.782 269.332 215.952 269.622 215.873Z" fill="#3A65B9"/>
<path d="M282.084 216.462C291.608 213.847 299.617 205.813 299.98 205.445C300.192 205.229 300.19 204.882 299.975 204.67C299.759 204.457 299.412 204.461 299.2 204.676C299.106 204.77 289.682 214.22 279.492 215.915C279.188 215.963 278.992 216.247 279.042 216.545C279.091 216.844 279.373 217.045 279.672 216.996C280.484 216.86 281.29 216.68 282.084 216.462Z" fill="#3A65B9"/>
<path d="M275.344 145.994C284.862 143.356 292.849 135.301 293.212 134.932C293.424 134.716 293.42 134.369 293.204 134.158C292.988 133.945 292.642 133.95 292.429 134.165C292.336 134.26 282.936 143.734 272.75 145.453C272.447 145.502 272.25 145.787 272.3 146.084C272.351 146.383 272.634 146.585 272.932 146.534C273.744 146.398 274.549 146.214 275.344 145.994Z" fill="#3A65B9"/>
<path d="M358.866 316.198L362.699 324.73L354.839 328.111L350.267 319.298L358.866 316.198Z" fill="#F49477"/>
<path d="M360.982 324.55C360.982 324.55 361.787 321.101 363.376 320.54C364.963 319.981 380.956 324.251 385.366 323.258C389.776 322.266 390.289 325.606 390.211 327.462C390.131 329.318 357.496 341.026 357.496 341.026C357.496 341.026 352.513 331.964 352.29 328.625C352.069 325.286 358.098 326.62 360.982 324.55Z" fill="#3F77C4"/>
<path d="M370.42 328.278C370.294 328.385 370.127 328.441 369.952 328.423C369.61 328.385 369.364 328.079 369.4 327.738C369.412 327.625 369.714 324.925 371.021 323.353C372.756 321.259 375.038 321.762 375.136 321.784C375.47 321.862 375.678 322.195 375.601 322.529C375.524 322.865 375.188 323.074 374.855 322.994C374.792 322.981 373.214 322.66 371.976 324.148C370.913 325.428 370.638 327.847 370.636 327.872C370.619 328.037 370.536 328.18 370.42 328.278Z" fill="white"/>
<path d="M368.021 327.415C367.896 327.521 367.728 327.576 367.553 327.558C367.212 327.522 366.965 327.215 367.001 326.874C367.013 326.759 367.316 324.059 368.622 322.487C370.358 320.392 372.64 320.896 372.737 320.918C373.072 320.995 373.279 321.329 373.201 321.665C373.126 321.998 372.79 322.207 372.456 322.128C372.392 322.116 370.814 321.793 369.577 323.281C368.509 324.569 368.239 326.981 368.237 327.006C368.22 327.172 368.138 327.314 368.021 327.415Z" fill="white"/>
<path d="M373.289 328.578C373.165 328.685 372.998 328.741 372.822 328.723C372.48 328.685 372.233 328.379 372.27 328.038C372.282 327.924 372.584 325.224 373.89 323.652C375.626 321.557 377.91 322.06 378.006 322.082C378.341 322.16 378.548 322.494 378.472 322.828C378.394 323.162 378.06 323.372 377.725 323.293C377.663 323.28 376.082 322.958 374.846 324.446C373.778 325.732 373.51 328.146 373.507 328.171C373.488 328.336 373.408 328.478 373.289 328.578Z" fill="white"/>
<path d="M360.845 317.852C360.03 318.778 357.515 320.182 354.773 321.409C354.275 321.634 353.766 321.851 353.262 322.06C352.372 322.426 351.487 322.76 350.657 323.045C350.657 323.045 332.011 288.677 324.856 263.755C324.856 263.755 261.742 255.962 259.556 233.858C259.481 233.119 259.477 232.363 259.547 231.587C259.733 229.48 260.462 227.255 261.827 224.9C263.267 222.42 284.867 224.838 296.538 228.113C296.538 228.113 328.176 240.438 339.874 253.135C345.794 259.561 360.845 317.852 360.845 317.852Z" fill="#343054"/>
<path d="M354.773 321.409C354.275 321.634 353.766 321.851 353.262 322.06C343.831 306.454 330.738 269.992 327.82 261.24C327.624 260.648 327.116 260.206 326.495 260.088C295.831 254.323 278.164 246.281 268.74 240.55C264.588 238.024 261.624 235.72 259.556 233.858C259.481 233.119 259.477 232.363 259.547 231.587C261.552 233.548 264.791 236.25 269.777 239.263C279.079 244.888 296.521 252.788 326.798 258.481C328.003 258.708 328.987 259.568 329.374 260.723C332.292 269.482 345.438 306.107 354.773 321.409Z" fill="#1E1D33"/>
<path d="M347.29 319.444L350.267 324.205C350.267 324.205 357.682 322.925 362.699 317.852L360.845 313.598C360.845 313.598 351.826 318.044 347.29 319.444Z" fill="#4C4685"/>
<path d="M246.84 237.946C246.84 237.946 251.136 243.769 250.781 246.782C250.427 249.797 246.538 255.475 243.428 255.749C240.32 256.022 247.001 248.452 245.424 248.696C243.516 248.992 230.634 259.56 227.916 259.56C225.198 259.56 231.114 254.648 233.419 253.406C233.419 253.406 227.326 256.133 225.906 257.551C224.489 258.97 223.458 255.928 230.55 251.614C230.55 251.614 224.045 255.305 223.602 255.365C222.155 255.557 226.283 250.718 229.837 248.968C229.837 248.968 224.623 251.507 224.093 251.518C223.36 251.533 224.933 249.827 228.802 247.682C232.284 245.753 237.988 236.892 237.988 236.892L246.84 237.946Z" fill="#F49477"/>
<path d="M257.287 135.982C257.287 135.982 242.831 163.748 239.539 192.792L237.988 236.892C237.988 236.892 239.474 240.035 246.84 237.946L253.966 193.85L259.426 173.675C259.426 173.675 261.907 148.846 257.287 135.982Z" fill="#0F69FA"/>
<path d="M257.287 135.982C257.287 135.982 242.831 163.748 239.539 192.792L237.988 236.892C237.988 236.892 239.474 240.035 246.84 237.946L253.966 193.85L259.426 173.675C259.426 173.675 261.907 148.846 257.287 135.982Z" fill="black" fill-opacity="0.05"/>
<path d="M301.687 105.959C300.152 114.647 291.865 120.444 283.177 118.908C274.49 117.373 268.693 109.085 270.228 100.398C271.764 91.7112 280.051 85.9128 288.739 87.4488C297.426 88.9848 303.224 97.272 301.687 105.959Z" fill="#343054"/>
<path d="M301.928 103.093C301.928 103.093 306.601 102.652 306.778 98.2236C306.928 94.4556 302.184 96.0768 303.073 93.2688C303.961 90.4596 305.268 87.9948 301.675 86.6184C298.531 85.4136 298.082 87.6348 294.382 83.6436C290.009 78.9288 284.567 87.0948 280.014 86.5644C273.3 85.7808 271.796 89.3916 270.611 92.2824C269.426 95.1732 271.612 97.734 271.612 97.734L301.928 103.093Z" fill="#343054"/>
<path d="M298.267 109.894C298.267 109.894 301.346 107.012 302.713 110.087C304.08 113.161 300.026 120.812 295.841 118.03L298.267 109.894Z" fill="#F36156"/>
<path d="M297.275 115.697C297.442 115.727 297.616 115.644 297.692 115.483C298.838 113.102 301.614 112.544 301.64 112.54C301.852 112.5 301.991 112.296 301.95 112.085C301.91 111.874 301.708 111.734 301.496 111.774C301.367 111.799 298.31 112.404 296.992 115.145C296.898 115.339 296.98 115.572 297.174 115.664L297.275 115.697Z" fill="#F04147"/>
<path d="M300.118 114.898L300.335 114.875C300.533 114.791 300.626 114.563 300.544 114.365C300.529 114.332 300.194 113.55 299.31 112.95C299.132 112.83 298.89 112.877 298.769 113.054C298.649 113.233 298.696 113.473 298.873 113.594C299.557 114.059 299.824 114.66 299.825 114.666C299.879 114.792 299.992 114.876 300.118 114.898Z" fill="#F04147"/>
<path d="M277.511 121.886L276.085 129.955C276.085 129.955 278.774 134.098 281.978 134.952C285.179 135.811 287.839 132.299 287.839 132.299L289.211 124.54L277.511 121.886Z" fill="#F49477"/>
<path d="M277.511 121.886L276.878 125.466C278.633 128.275 282.404 129.566 288.293 129.733L289.211 124.54L277.511 121.886Z" fill="#F36156"/>
<path d="M272.668 99.66C272.262 102.822 271.868 106.796 271.912 110.038C271.924 110.845 271.962 111.612 272.033 112.304C272.68 118.549 275.125 129.497 287.766 127.351C293.35 126.406 296.818 120.986 298.954 115.229C300.403 111.319 301.236 107.256 301.699 104.329C302.168 101.341 301.024 98.3316 298.692 96.4056C292.376 91.1868 284.708 91.3608 279.502 92.3724C275.887 93.0744 273.133 96.0144 272.668 99.66Z" fill="#F49477"/>
<path d="M292.104 109.89C291.952 110.752 292.272 111.528 292.819 111.625C293.368 111.722 293.934 111.102 294.086 110.24C294.239 109.379 293.918 108.602 293.371 108.505C292.824 108.409 292.255 109.028 292.104 109.89Z" fill="#343054"/>
<path d="M280.493 107.838C280.34 108.698 280.661 109.475 281.209 109.573C281.756 109.669 282.324 109.05 282.475 108.188C282.628 107.327 282.307 106.55 281.76 106.453C281.213 106.356 280.645 106.976 280.493 107.838Z" fill="#343054"/>
<path d="M297.167 105.846C297.167 105.846 293.328 103.486 289.907 104.297L289.912 105.818C289.912 105.818 293.49 105.659 296.638 107.512C296.968 106.868 297.312 106.594 297.167 105.846Z" fill="#343054"/>
<path d="M278.28 102.508C278.28 102.508 282.696 101.606 285.631 103.541L285.104 104.969C285.104 104.969 281.8 103.592 278.207 104.254C278.117 103.536 277.889 103.159 278.28 102.508Z" fill="#343054"/>
<path d="M285.526 115.056C284.879 114.942 284.282 114.576 284.19 114.518C284.009 114.403 283.954 114.163 284.069 113.982C284.183 113.8 284.424 113.744 284.605 113.86C284.927 114.061 285.719 114.428 286.117 114.277C286.194 114.247 286.303 114.182 286.369 113.953C286.744 112.639 287.171 108.088 287.176 108.042C287.195 107.827 287.384 107.67 287.598 107.69C287.813 107.71 287.97 107.899 287.95 108.114C287.932 108.305 287.512 112.784 287.118 114.167C286.969 114.688 286.643 114.91 286.394 115.004C286.123 115.108 285.82 115.108 285.526 115.056Z" fill="#F36156"/>
<path d="M289.933 118.254C289.342 119.774 287.788 122.49 284.28 121.871C280.764 121.249 280.247 118.424 280.23 116.538L289.933 118.254Z" fill="white"/>
<path d="M283.974 123.88C282.982 123.704 282.229 123.053 282.198 123.025C282.036 122.884 282.019 122.638 282.161 122.476C282.302 122.315 282.55 122.298 282.71 122.44C282.716 122.446 283.336 122.976 284.11 123.113C284.819 123.239 285.57 122.951 285.576 122.95C285.776 122.869 286.002 122.966 286.082 123.167C286.162 123.366 286.064 123.593 285.864 123.672C285.825 123.688 284.91 124.045 283.974 123.88Z" fill="#F36156"/>
<path d="M298.21 112.52C298.778 110.992 299.425 109.001 299.401 107.918C299.356 106.002 298.015 104.642 298.842 102.949C299.67 101.248 298.122 98.9952 296.788 98.4324C295.457 97.8648 292.09 97.9824 289.163 95.9016C286.369 93.912 280.885 94.0116 279.676 95.8152C278.21 98.0016 279.594 98.4756 276.288 100.534C274.972 101.354 275.85 104.245 275.738 106.004C275.684 106.814 275.628 107.203 275.447 108.05L275.358 108.481L271.944 107.878C272.041 105.136 272.347 102.148 272.666 99.6588C273.132 96.0133 275.888 93.0756 279.502 92.3736C284.71 91.3608 292.375 91.1844 298.693 96.4056C301.024 98.334 302.17 101.341 301.698 104.329C301.332 106.65 300.732 109.687 299.774 112.798L298.21 112.52Z" fill="#343054"/>
<path d="M273.197 109.62C273.365 108.73 273.46 107.825 273.46 106.918C273.458 105.678 273.302 104.525 272.16 103.806C271.242 103.228 270.186 103.033 269.236 104.016C266.898 106.435 267.45 115.349 272.336 114.169L273.197 109.62Z" fill="#F49477"/>
<path d="M271.9 111.526C271.741 111.463 271.637 111.302 271.654 111.125C271.913 108.494 269.833 106.577 269.812 106.558C269.653 106.414 269.64 106.168 269.784 106.008C269.928 105.848 270.175 105.835 270.334 105.979C270.431 106.067 272.728 108.173 272.429 111.202C272.407 111.415 272.218 111.57 272.003 111.55L271.9 111.526Z" fill="#F36156"/>
<path d="M269.887 109.364L269.713 109.23C269.587 109.056 269.627 108.812 269.801 108.686C269.83 108.666 270.523 108.173 271.59 108.12C271.804 108.109 271.987 108.275 271.998 108.491C272.008 108.704 271.842 108.888 271.627 108.898C270.802 108.938 270.262 109.314 270.257 109.318C270.146 109.398 270.006 109.411 269.887 109.364Z" fill="#F36156"/>
<path d="M453.502 294.068C453.502 294.068 448.243 304.042 442.054 311.942C440.226 314.273 438.322 316.423 436.441 318.082C433.398 320.774 430.429 322.182 428.012 320.988C419.046 316.56 399.059 281.317 399.059 281.317L403.98 275.597C403.98 275.597 412.877 285.661 419.382 291.685C425.383 297.24 429.996 301.392 429.996 301.392C430.826 300.152 431.712 298.796 432.631 297.36C433.61 295.835 434.626 294.222 435.659 292.561C443.15 280.511 452.172 267.33 452.172 267.33L453.502 294.068Z" fill="#F49477"/>
<path d="M405.286 279.058C405.286 279.058 407.315 275.725 406.53 272.742C405.746 269.759 404.983 263.015 401.724 263.198C400.534 263.264 402.272 266.082 401.474 268.692C401.474 268.692 397.984 267.011 395.647 265.284C393.593 263.766 389.338 261.3 387.359 260.173C386.816 259.865 386.189 260.456 386.503 260.988C387.011 261.848 388.253 263.132 391.122 264.929C391.122 264.929 383.993 260.936 382.799 261.814C381.604 262.691 390.611 267.522 390.611 267.522C390.611 267.522 383.338 264.582 382.742 265.658C382.38 266.314 389.513 270.503 389.513 270.503C389.513 270.503 382.428 268.316 383.743 269.975C384.126 270.458 397.584 276.548 400.388 283.62C400.388 283.62 404.31 281.472 405.286 279.058Z" fill="#F49477"/>
<path d="M442.054 311.942C440.226 314.273 438.322 316.423 436.441 318.082L432.631 297.36C433.61 295.835 434.626 294.222 435.659 292.561L442.054 311.942Z" fill="#0F69FA"/>
<path d="M442.054 311.942C440.226 314.273 438.322 316.423 436.441 318.082L432.631 297.36C433.61 295.835 434.626 294.222 435.659 292.561L442.054 311.942Z" fill="white" fill-opacity="0.5"/>
<path d="M452.443 266.401L433.494 293.731L439.525 318.082L454.393 294.362C454.393 294.362 457.177 278.492 452.443 266.401Z" fill="#0F69FA"/>
<path d="M452.443 266.401L433.494 293.731L439.525 318.082L454.393 294.362C454.393 294.362 457.177 278.492 452.443 266.401Z" fill="black" fill-opacity="0.05"/>
<path d="M462.168 500.248V508.875L470.222 508.748L470.748 499.605L462.168 500.248Z" fill="#F49477"/>
<path d="M482.617 374.189C482.561 375.214 482.282 380.137 481.86 387.002C480.725 405.863 478.602 439.376 477.356 446.906C476.077 454.631 476.656 479.963 477.067 493.223C477.133 495.478 476.255 497.526 474.787 499.029C474.242 499.585 473.609 500.065 472.919 500.458C471.719 501.122 470.339 501.504 468.871 501.504H462.732C458.106 501.504 454.391 497.755 454.536 493.223C454.88 482.011 455.303 461.561 454.502 445.762C453.734 430.726 454.847 404.119 455.704 387.535H455.714C456.06 380.911 456.36 375.899 456.481 373.852L482.617 374.189Z" fill="#343054"/>
<path d="M456.481 373.852L482.617 374.189C482.561 375.214 482.282 380.137 481.86 387.002C472.985 388.07 463.744 388.517 455.714 387.535C456.06 380.911 456.36 375.899 456.481 373.852Z" fill="#1E1D33"/>
<path d="M474.686 469.574C474.916 478.055 475.153 486.822 474.997 493.89C474.954 495.874 474.883 497.57 474.79 499.025C474.244 499.588 473.611 500.071 472.914 500.455C473.064 498.768 473.18 496.608 473.242 493.853C473.394 486.825 473.158 478.08 472.928 469.62C472.648 459.282 472.384 449.516 472.958 445.358C474.212 436.261 477.017 386.944 477.752 373.777L479.51 373.855C478.775 387.013 475.962 436.43 474.698 445.588C474.144 449.608 474.409 459.308 474.686 469.574Z" fill="#1E1D33"/>
<path d="M464.232 508.553C464.232 508.553 462.565 506.255 461.197 506.322C459.83 506.388 449.119 514.363 445.496 514.962C441.875 515.562 442.517 518.178 443.147 519.523C443.778 520.867 471.931 519.641 471.931 519.641C471.931 519.641 472.888 511.46 472.025 508.932C471.164 506.406 467.04 509.207 464.232 508.553Z" fill="#3F77C4"/>
<path d="M458.285 514.149C458.412 514.19 458.555 514.181 458.68 514.115C458.926 513.984 459.018 513.684 458.885 513.444C458.84 513.364 457.781 511.465 456.314 510.701C454.364 509.682 452.801 510.742 452.735 510.787C452.508 510.945 452.454 511.255 452.616 511.477C452.776 511.7 453.092 511.753 453.32 511.595C453.364 511.567 454.451 510.853 455.839 511.575C457.034 512.198 457.986 513.898 457.996 513.915C458.06 514.031 458.166 514.112 458.285 514.149Z" fill="white"/>
<path d="M459.822 512.789C459.948 512.828 460.091 512.821 460.218 512.753C460.464 512.623 460.555 512.323 460.423 512.082C460.378 512.002 459.319 510.103 457.852 509.339C455.9 508.321 454.338 509.379 454.273 509.425C454.045 509.584 453.991 509.893 454.153 510.116C454.315 510.338 454.63 510.391 454.858 510.233C454.901 510.205 455.988 509.49 457.376 510.214C458.576 510.839 459.524 512.536 459.533 512.554C459.598 512.67 459.703 512.75 459.822 512.789Z" fill="white"/>
<path d="M456.218 515.237C456.344 515.278 456.487 515.269 456.614 515.202C456.859 515.072 456.95 514.772 456.818 514.53C456.774 514.451 455.714 512.552 454.248 511.788C452.296 510.769 450.734 511.828 450.67 511.875C450.44 512.032 450.388 512.341 450.548 512.565C450.71 512.788 451.025 512.84 451.254 512.681C451.296 512.653 452.384 511.939 453.774 512.663C454.974 513.287 455.92 514.985 455.928 515.002C455.993 515.119 456.098 515.199 456.218 515.237Z" fill="white"/>
<path d="M501.395 500.248L502.262 508.861L509.449 508.748L509.975 499.605L501.395 500.248Z" fill="#F49477"/>
<path d="M516.191 445.762C515.39 461.561 515.813 482.011 516.157 493.223C516.29 497.755 512.587 501.504 507.961 501.504H501.823C500.466 501.504 499.175 501.176 498.053 500.61C497.375 500.262 496.74 499.825 496.195 499.302C494.549 497.788 493.548 495.62 493.626 493.223C494.038 479.963 494.616 454.631 493.337 446.906C492.07 439.246 489.889 404.707 488.767 386.042C488.399 379.811 488.143 375.355 488.076 374.255L514.256 374.592C514.333 375.922 514.456 377.97 514.601 380.563C515.446 395.489 517.08 428.362 516.191 445.762Z" fill="#343054"/>
<path d="M514.601 380.563C509.675 381.881 499.898 384.3 488.767 386.042C488.399 379.811 488.143 375.355 488.076 374.255L514.256 374.592C514.333 375.922 514.456 377.97 514.601 380.563Z" fill="#1E1D33"/>
<path d="M497.719 493.853C497.779 496.692 497.903 498.896 498.055 500.605C497.374 500.261 496.745 499.824 496.192 499.307C496.086 497.791 496.007 496.003 495.96 493.89C495.808 486.822 496.045 478.055 496.274 469.574C496.552 459.308 496.813 449.608 496.259 445.588C494.996 436.427 492.182 386.983 491.45 373.844L493.206 373.766C493.94 386.915 496.745 436.259 498.002 445.358C498.576 449.516 498.311 459.282 498.031 469.62C497.803 478.08 497.567 486.825 497.719 493.853Z" fill="#1E1D33"/>
<path d="M505.064 507.536C505.064 507.536 508.729 506.579 509.742 506.598C510.756 506.618 517.544 514.055 519.83 514.493C523.975 515.287 523.981 521.628 521.459 521.944C514.163 522.855 501.68 519.835 501.68 519.835C501.68 519.835 500.531 511.698 501.03 509.144C501.529 506.591 503.026 508.288 505.064 507.536Z" fill="#3F77C4"/>
<path d="M511.106 514.482C510.976 514.511 510.834 514.488 510.715 514.411C510.482 514.258 510.422 513.95 510.576 513.724C510.629 513.648 511.87 511.858 513.403 511.234C515.443 510.403 516.896 511.603 516.958 511.655C517.169 511.834 517.192 512.147 517.009 512.353C516.827 512.561 516.508 512.582 516.296 512.404C516.257 512.372 515.244 511.56 513.79 512.149C512.54 512.657 511.427 514.26 511.416 514.275C511.34 514.386 511.228 514.457 511.106 514.482Z" fill="white"/>
<path d="M509.708 512.983C509.577 513.012 509.437 512.989 509.318 512.911C509.085 512.759 509.024 512.452 509.179 512.225C509.231 512.148 510.472 510.358 512.005 509.735C514.048 508.903 515.498 510.103 515.56 510.156C515.771 510.334 515.794 510.647 515.611 510.853C515.429 511.061 515.11 511.084 514.898 510.905C514.859 510.872 513.845 510.06 512.393 510.649C511.138 511.159 510.03 512.76 510.019 512.775C509.944 512.886 509.829 512.958 509.708 512.983Z" fill="white"/>
<path d="M513.058 515.759C512.927 515.786 512.785 515.765 512.666 515.685C512.435 515.533 512.374 515.226 512.528 514.999C512.58 514.924 513.821 513.132 515.354 512.509C517.397 511.676 518.848 512.878 518.909 512.929C519.12 513.109 519.143 513.422 518.96 513.628C518.778 513.835 518.459 513.858 518.248 513.679C518.208 513.647 517.194 512.835 515.741 513.425C514.486 513.934 513.378 515.535 513.368 515.551C513.292 515.662 513.179 515.731 513.058 515.759Z" fill="white"/>
<path d="M520.198 376.834C496.553 382.664 472.936 382.68 449.344 376.834C449.22 368.198 449.095 333.667 449.776 305.326C449.788 304.768 449.803 304.213 449.818 303.661C449.822 303.386 449.831 303.113 449.838 302.844V302.8C449.848 302.446 449.855 302.098 449.868 301.748C450.372 283.057 451.253 267.793 452.76 265.754L452.762 265.752C456.283 261.013 473.975 253.445 478.871 250.064C479.279 250.708 481.686 254.282 484.842 254.546C488.306 254.846 491.386 250.853 491.386 250.853V250.098C496.302 253.475 512.33 260.479 515.848 265.205C519.694 270.384 520.361 362.12 520.198 376.834Z" fill="#0F69FA"/>
<path d="M520.198 376.834C496.553 382.664 472.936 382.68 449.344 376.834C449.22 368.198 449.095 333.667 449.776 305.326C449.788 304.768 449.803 304.213 449.818 303.661C449.822 303.386 449.831 303.113 449.838 302.844V302.8C449.848 302.446 449.855 302.098 449.868 301.748C450.372 283.057 451.253 267.793 452.76 265.754L452.762 265.752C456.283 261.013 473.975 253.445 478.871 250.064C479.279 250.708 481.686 254.282 484.842 254.546C488.306 254.846 491.386 250.853 491.386 250.853V250.098C496.302 253.475 512.33 260.479 515.848 265.205C519.694 270.384 520.361 362.12 520.198 376.834Z" fill="black" fill-opacity="0.15"/>
<path d="M456.983 292.019C454.954 294.708 451.988 300.8 450.658 303.617C450.475 304.002 450.325 304.327 450.211 304.574C450.061 304.896 449.976 305.083 449.97 305.098L449.776 305.326C449.788 304.768 449.803 304.213 449.818 303.661C449.822 303.386 449.831 303.113 449.838 302.844V302.8C450.11 302.225 450.433 301.552 450.793 300.812C452.306 297.721 454.466 293.552 456.102 291.383C456.281 291.144 456.625 291.095 456.869 291.27C457.112 291.446 457.16 291.782 456.983 292.019Z" fill="#3A65B9"/>
<path d="M502.259 271.159H502.241C492.846 270.866 485.597 267.036 481.17 263.875C476.375 260.452 473.831 257.141 473.725 257C473.545 256.764 473.596 256.427 473.837 256.25C474.08 256.074 474.424 256.123 474.604 256.36C474.704 256.492 484.842 269.543 502.276 270.086C502.578 270.096 502.816 270.344 502.806 270.64C502.796 270.93 502.553 271.159 502.259 271.159Z" fill="#3A65B9"/>
<path d="M470.606 358.817C470.321 358.817 470.078 358.598 470.06 358.315C470.04 358.019 470.269 357.764 470.572 357.744C485.986 356.754 495.181 349.1 500.18 342.856C505.616 336.065 507.42 329.414 507.437 329.347C507.514 329.062 507.811 328.888 508.104 328.963C508.397 329.036 508.573 329.329 508.498 329.617C508.424 329.894 506.633 336.518 501.071 343.482C495.931 349.915 486.482 357.798 470.642 358.816L470.606 358.817Z" fill="#3A65B9"/>
<path d="M478.883 349.225C478.642 349.225 478.421 349.069 478.355 348.828C478.276 348.544 478.448 348.248 478.74 348.172C492.136 344.624 494.722 333.664 494.746 333.553C494.809 333.264 495.102 333.078 495.396 333.143C495.691 333.205 495.878 333.49 495.816 333.779C495.79 333.9 495.14 336.76 492.743 340.105C490.536 343.184 486.365 347.263 479.026 349.207L478.883 349.225Z" fill="#3A65B9"/>
<path d="M537.548 375.884C537.212 380.581 534.334 384.071 534.32 387.162C534.305 390.257 530.66 388.232 532.348 382.124C534.032 376.018 531.533 370.106 530.197 370.162C528.86 370.219 530.622 377.045 529.218 379.313C527.815 381.577 526.754 376.819 525.523 373.873C524.245 370.816 524.96 364.475 526.118 360.007C527.275 355.543 521.593 327.217 522.337 319.235L520.286 308.88L519.088 302.84L518.864 296.536L529.817 292.284C530.228 294.308 530.651 296.407 531.071 298.517C531.254 299.448 531.436 300.38 531.616 301.31C533.08 308.861 534.396 316.292 534.931 321.061C536.412 334.25 533.982 361.15 533.982 361.15C533.982 361.15 537.865 371.482 537.548 375.884Z" fill="#F49477"/>
<path d="M531.616 301.31C529.145 304.075 525.198 307.595 520.286 308.88L519.088 302.84L518.864 296.536L529.817 292.284C530.228 294.308 530.651 296.407 531.071 298.517C531.254 299.448 531.436 300.38 531.616 301.31Z" fill="#0F69FA"/>
<path d="M531.616 301.31C529.145 304.075 525.198 307.595 520.286 308.88L519.088 302.84L518.864 296.536L529.817 292.284C530.228 294.308 530.651 296.407 531.071 298.517C531.254 299.448 531.436 300.38 531.616 301.31Z" fill="white" fill-opacity="0.5"/>
<path d="M534.656 295.332C534.656 295.332 533.35 296.85 531.07 298.516C528.31 300.544 524.117 302.797 519.101 302.84C518.495 285.366 517.603 270.6 516.305 266.266C518.616 269.06 529.714 282.823 534.656 295.332Z" fill="#0F69FA"/>
<path d="M534.656 295.332C534.656 295.332 533.35 296.85 531.07 298.516C528.31 300.544 524.117 302.797 519.101 302.84C518.495 285.366 517.603 270.6 516.305 266.266C518.616 269.06 529.714 282.823 534.656 295.332Z" fill="black" fill-opacity="0.05"/>
<path d="M511.584 290.264C513.613 292.952 516.578 299.045 517.909 301.861C518.09 302.248 518.24 302.573 518.355 302.819C518.507 303.14 518.591 303.328 518.597 303.342C518.687 303.544 518.887 303.661 519.098 303.661H519.109C519.103 303.388 519.095 303.114 519.086 302.843C519.248 302.843 519.41 302.843 519.566 302.837C519.492 302.678 519.314 302.293 519.06 301.748C518.738 301.064 518.295 300.125 517.773 299.058C516.261 295.964 514.1 291.796 512.466 289.628C512.285 289.39 511.943 289.339 511.699 289.516C511.456 289.69 511.406 290.028 511.584 290.264Z" fill="#3A65B9"/>
<path d="M501.683 222C501.683 231.464 495.735 237.988 486.075 237.988C476.413 237.988 469.68 230.975 469.68 221.509C469.68 212.044 475.4 204.872 485.063 204.872C496.649 204.872 501.683 212.534 501.683 222Z" fill="#343054"/>
<path d="M499.513 226.075C499.513 226.075 502.198 222.569 504.193 225.468C506.189 228.367 503.368 236.932 498.48 234.841L499.513 226.075Z" fill="#F36156"/>
<path d="M499.548 232.194C499.728 232.194 499.894 232.078 499.945 231.899C500.702 229.255 503.498 228.184 503.526 228.173C503.738 228.094 503.846 227.86 503.766 227.651C503.684 227.442 503.447 227.336 503.233 227.416C503.104 227.465 500.023 228.636 499.15 231.68C499.088 231.895 499.217 232.118 499.435 232.178L499.548 232.194Z" fill="#F04147"/>
<path d="M502.37 230.862L502.592 230.798C502.784 230.677 502.84 230.426 502.717 230.239C502.696 230.208 502.201 229.469 501.167 229.015C500.96 228.923 500.714 229.015 500.622 229.219C500.527 229.423 500.622 229.662 500.83 229.753C501.629 230.104 502.019 230.671 502.022 230.677C502.102 230.797 502.234 230.862 502.37 230.862Z" fill="#F04147"/>
<path d="M471.851 226.075C471.851 226.075 469.166 222.569 467.171 225.468C465.175 228.367 467.996 236.932 472.883 234.841L471.851 226.075Z" fill="#F36156"/>
<path d="M471.816 232.194C471.635 232.194 471.47 232.078 471.419 231.899C470.662 229.255 467.866 228.184 467.837 228.173C467.626 228.094 467.518 227.86 467.598 227.651C467.678 227.442 467.917 227.336 468.13 227.416C468.26 227.465 471.341 228.636 472.214 231.68C472.276 231.895 472.147 232.118 471.928 232.178L471.816 232.194Z" fill="#F04147"/>
<path d="M468.994 230.862L468.772 230.798C468.578 230.677 468.524 230.426 468.647 230.239C468.668 230.208 469.163 229.469 470.197 229.015C470.405 228.923 470.65 229.015 470.742 229.219C470.836 229.423 470.742 229.662 470.534 229.753C469.734 230.104 469.345 230.671 469.342 230.677C469.262 230.797 469.129 230.862 468.994 230.862Z" fill="#F04147"/>
<path d="M479.075 242.105V250.621C479.075 250.621 481.667 254.958 485.173 255.253C488.675 255.552 491.786 251.519 491.786 251.519V242.702L479.075 242.105Z" fill="#F49477"/>
<path d="M479.075 242.105V245.884C481.427 248.441 485.605 249.079 491.786 248.185V242.702L479.075 242.105Z" fill="#F36156"/>
<path d="M500.948 225.804C500.818 227.609 500.6 229.514 500.243 231.412C499.078 237.689 496.453 243.863 490.795 245.844C477.988 250.325 473.411 239.562 471.58 233.288C471.379 232.592 471.199 231.817 471.038 230.989C470.748 229.494 470.522 227.826 470.346 226.146C470.136 224.108 469.997 222.047 469.912 220.234C469.723 216.415 472.056 212.911 475.703 211.536C480.954 209.558 488.933 207.996 496.494 212.196C499.288 213.743 501.038 216.617 501.101 219.76C501.133 221.468 501.109 223.554 500.948 225.804Z" fill="#F49477"/>
<path d="M492.474 239.413V239.417H492.47C491.904 239.948 491.326 240.394 490.751 240.696C487.506 242.416 487.153 242.154 485.874 242.21C484.568 242.27 482.772 241.894 480.946 240.896C480.379 240.582 479.531 239.98 478.603 239.148C478.603 239.148 477.287 234.739 485.647 235.844C494.028 234.433 492.613 238.553 492.474 239.413ZM499.362 226.146C498.93 226.918 496.53 234.173 495.863 235.189C494.348 231.925 487.042 234.298 487.042 234.298C486.582 234.442 486.107 234.518 485.627 234.518C485.164 234.518 484.699 234.445 484.253 234.308L484.216 234.298C484.216 234.298 476.824 232.026 475.367 235.446C474.69 234.433 472.606 227.316 472.217 226.146H470.346C470.522 227.826 470.748 229.494 471.038 230.989C471.199 231.817 471.379 232.592 471.58 233.288C473.411 239.562 477.988 250.325 490.795 245.844C496.453 243.863 499.078 237.689 500.243 231.412C500.6 229.514 500.818 227.609 500.948 225.804L499.362 226.146Z" fill="#343054"/>
<path d="M491.176 227.186C491.176 228.096 491.653 228.833 492.242 228.833C492.833 228.833 493.312 228.096 493.312 227.186C493.312 226.277 492.833 225.54 492.242 225.54C491.653 225.54 491.176 226.277 491.176 227.186Z" fill="#343054"/>
<path d="M478.584 227.153C478.584 228.061 479.063 228.799 479.653 228.799C480.242 228.799 480.721 228.061 480.721 227.153C480.721 226.243 480.242 225.506 479.653 225.506C479.063 225.506 478.584 226.243 478.584 227.153Z" fill="#343054"/>
<path d="M496.478 222.538C496.478 222.538 492.386 220.954 489.235 222.287L489.551 224.004C489.551 224.004 494.175 223.621 496.506 224.546C496.715 223.885 496.745 223.217 496.478 222.538Z" fill="#343054"/>
<path d="M476.126 222.538C476.126 222.538 480.22 220.954 483.371 222.287L483.055 224.004C483.055 224.004 478.429 223.621 476.1 224.546C475.891 223.885 475.861 223.217 476.126 222.538Z" fill="#343054"/>
<path d="M485.538 233.557C484.842 233.557 484.151 233.292 484.044 233.249C483.833 233.165 483.731 232.928 483.818 232.722C483.904 232.514 484.145 232.416 484.356 232.5C484.728 232.649 485.624 232.88 486.012 232.652C486.086 232.609 486.19 232.523 486.216 232.276C486.365 230.863 485.97 226.128 485.966 226.08C485.947 225.858 486.116 225.662 486.343 225.644C486.572 225.625 486.77 225.791 486.788 226.014C486.805 226.212 487.194 230.873 487.037 232.36C486.977 232.92 486.677 233.206 486.436 233.348C486.173 233.502 485.855 233.557 485.538 233.557Z" fill="#F36156"/>
<path d="M491.176 236.522C490.837 238.186 489.716 241.247 485.936 241.247C482.148 241.247 481.086 238.45 480.721 236.522H491.176Z" fill="white"/>
<path d="M470.346 226.147H472.218C472.011 224.305 471.715 221.063 473.258 220.6C478.134 219.132 471.815 215.755 474.017 214.073C476.217 212.386 481.695 213.108 485.505 212.987C489.338 212.866 495.5 212.918 496.995 213.258C498.494 213.594 497.673 216.032 497.124 217.922C496.571 219.808 498.961 221.896 499.362 223.85C499.476 224.411 499.453 225.244 499.361 226.147H500.922C501.107 223.769 501.133 221.554 501.099 219.76C501.038 216.616 499.287 213.743 496.495 212.194C488.934 207.995 480.956 209.56 475.704 211.538C472.057 212.91 469.724 216.418 469.91 220.232C469.998 222.047 470.135 224.108 470.346 226.147Z" fill="#343054"/>
<path d="M195.936 433.396H100.938C102.508 423.866 110.068 416.941 118.878 416.97L148.436 417.056L177.996 416.97C186.806 416.941 194.366 423.866 195.936 433.396Z" fill="white"/>
<path d="M113.587 520.603H108.41V432.031H113.587V520.603Z" fill="white"/>
<path d="M188.464 520.603H183.288V432.031H188.464V520.603Z" fill="white"/>
<path d="M183.288 461.84H113.587V456.85H183.288V461.84Z" fill="#CFE6F4"/>
<path d="M125.179 314.165C125.179 314.165 109.313 335.324 107.203 353.776C105.712 366.809 125.179 386.284 125.179 386.284L131.885 382.946L125.2 367.874C122.821 360.533 119.893 357.631 122.056 350.225L126.898 339.785L125.179 314.165Z" fill="#0F69FA"/>
<path d="M125.179 314.165C125.179 314.165 109.313 335.324 107.203 353.776C105.712 366.809 125.179 386.284 125.179 386.284L131.885 382.946L125.2 367.874C122.821 360.533 119.893 357.631 122.056 350.225L126.898 339.785L125.179 314.165Z" fill="black" fill-opacity="0.05"/>
<path d="M175.175 313.846C175.175 313.846 190.834 336.407 192.131 354.935C193.249 370.909 174.079 386.284 174.079 386.284L168.542 383.527L176.21 368.299C178.589 360.959 179.719 356.532 176.476 348.545L172.361 339.785L175.175 313.846Z" fill="#0F69FA"/>
<path d="M175.175 313.846C175.175 313.846 190.834 336.407 192.131 354.935C193.249 370.909 174.079 386.284 174.079 386.284L168.542 383.527L176.21 368.299C178.589 360.959 179.719 356.532 176.476 348.545L172.361 339.785L175.175 313.846Z" fill="black" fill-opacity="0.05"/>
<path d="M128.411 362.352L117.895 395.807C117.895 395.807 163.426 401.615 177.35 397.856L170.278 361.42L175.175 313.846C168.36 310.974 161.136 309.139 153.76 308.608C142.992 307.829 136.19 309.606 125.179 314.165L128.411 362.352Z" fill="#0F69FA"/>
<path d="M128.411 362.352L117.895 395.807C117.895 395.807 163.426 401.615 177.35 397.856L170.278 361.42L175.175 313.846C168.36 310.974 161.136 309.139 153.76 308.608C142.992 307.829 136.19 309.606 125.179 314.165L128.411 362.352Z" fill="black" fill-opacity="0.15"/>
<path d="M139.794 324.252C149.838 323.075 159.184 316.175 159.608 315.858C159.857 315.673 159.907 315.322 159.722 315.074C159.538 314.825 159.186 314.776 158.938 314.959C158.827 315.041 147.83 323.154 137.252 323.298C136.939 323.299 136.696 323.557 136.7 323.867C136.704 324.175 136.958 324.425 137.268 324.42C138.112 324.408 138.955 324.349 139.794 324.252Z" fill="#3A65B9"/>
<path d="M147.887 503.49L148.708 510.876L156.564 511.056L157.223 504.926L147.887 503.49Z" fill="#F49477"/>
<path d="M146.654 386.375C146.654 386.375 126.31 385.256 119.419 390.894C112.528 396.532 113.913 412.711 120.934 417.128C127.954 421.546 139.92 430.225 139.92 430.225L147.532 505.898L157.59 506.239C157.59 506.239 166.858 430.225 162.158 415.504C157.46 400.782 146.654 386.375 146.654 386.375Z" fill="#1E1D33"/>
<path d="M158.518 502.485C159.065 504.253 158.804 505.967 158.258 507.668L146.686 507.412C146.278 505.725 146.216 504.032 146.461 502.335L158.518 502.485Z" fill="#343054"/>
<path d="M175.445 385.802H122.056L117.122 356.95C116.695 354.451 118.62 352.17 121.154 352.17H176.346C178.88 352.17 180.805 354.451 180.378 356.95L175.445 385.802Z" fill="white"/>
<path d="M171.151 392.076H126.402C124.002 392.076 122.056 390.131 122.056 387.731V385.802H175.498V387.731C175.498 390.131 173.551 392.076 171.151 392.076Z" fill="#CFE6F4"/>
<path d="M153.506 370.175C153.506 372.737 151.43 374.813 148.87 374.813C146.309 374.813 144.233 372.737 144.233 370.175C144.233 367.615 146.309 365.538 148.87 365.538C151.43 365.538 153.506 367.615 153.506 370.175Z" fill="#CFE6F4"/>
<path d="M114.518 482.714L112.777 490.025L119.826 491.418L122.699 484.89L114.518 482.714Z" fill="#F49477"/>
<path d="M156.99 385.122C156.99 385.122 143.365 380.423 135.378 390.289C127.391 400.156 114.016 483.444 114.016 483.444L123.185 487.228L152.659 413.26C152.659 413.26 176.662 426.958 179.569 407.484C181.87 392.076 156.99 385.122 156.99 385.122Z" fill="#343054"/>
<path d="M125.262 483.411C125.228 485.321 124.421 486.917 123.336 488.411L112.066 484.426C112.21 482.64 112.695 480.962 113.483 479.375L125.262 483.411Z" fill="#4C4685"/>
<path d="M118.156 488.822C118.156 488.822 113.883 486.654 112.625 486.407C111.367 486.158 100.979 493.528 98.0363 493.457C92.6985 493.326 90.9905 501.163 94.0237 502.228C102.797 505.314 119.036 504.931 119.036 504.931C119.036 504.931 122.642 495.182 122.71 491.892C122.778 488.603 120.474 490.297 118.156 488.822Z" fill="#3F77C4"/>
<path d="M108.824 495.786C108.977 495.855 109.158 495.866 109.326 495.802C109.653 495.675 109.812 495.312 109.681 494.989C109.637 494.881 108.585 492.335 106.856 491.154C104.557 489.577 102.439 490.673 102.35 490.721C102.041 490.883 101.928 491.264 102.098 491.569C102.268 491.874 102.656 491.987 102.966 491.824C103.024 491.794 104.494 491.062 106.132 492.18C107.541 493.144 108.487 495.425 108.495 495.446C108.56 495.602 108.68 495.721 108.824 495.786Z" fill="white"/>
<path d="M110.954 494.309C111.107 494.377 111.287 494.388 111.456 494.325C111.783 494.197 111.942 493.834 111.811 493.512C111.767 493.404 110.715 490.858 108.987 489.675C106.685 488.099 104.569 489.193 104.48 489.241C104.171 489.405 104.058 489.785 104.228 490.091C104.398 490.395 104.787 490.509 105.096 490.344C105.154 490.315 106.625 489.583 108.262 490.702C109.677 491.67 110.616 493.945 110.625 493.969C110.689 494.125 110.81 494.243 110.954 494.309Z" fill="white"/>
<path d="M106.069 496.838C106.223 496.909 106.403 496.92 106.572 496.855C106.899 496.728 107.058 496.365 106.927 496.042C106.883 495.934 105.831 493.388 104.102 492.206C101.801 490.628 99.6848 491.725 99.5958 491.773C99.2864 491.936 99.1739 492.317 99.344 492.622C99.5132 492.925 99.9024 493.04 100.212 492.875C100.269 492.846 101.74 492.114 103.378 493.232C104.792 494.201 105.732 496.476 105.741 496.499C105.804 496.656 105.925 496.774 106.069 496.838Z" fill="white"/>
<path d="M151.738 510.568C151.738 510.568 156.112 509.24 157.334 509.216C158.556 509.192 167.09 517.838 169.866 518.259C174.901 519.024 175.205 526.668 172.178 527.166C163.426 528.607 148.237 525.552 148.237 525.552C148.237 525.552 146.468 515.797 146.951 512.695C147.433 509.593 149.316 511.568 151.738 510.568Z" fill="#3F77C4"/>
<path d="M159.348 518.657C159.192 518.696 159.02 518.676 158.873 518.588C158.587 518.415 158.498 518.047 158.675 517.766C158.734 517.673 160.145 515.456 161.964 514.632C164.386 513.534 166.193 514.914 166.268 514.974C166.532 515.178 166.574 515.555 166.364 515.813C166.154 516.071 165.77 516.113 165.508 515.908C165.458 515.87 164.2 514.938 162.474 515.718C160.991 516.388 159.725 518.374 159.713 518.393C159.626 518.528 159.494 518.619 159.348 518.657Z" fill="white"/>
<path d="M157.592 516.915C157.438 516.955 157.266 516.936 157.118 516.847C156.832 516.675 156.743 516.306 156.919 516.025C156.978 515.93 158.389 513.714 160.208 512.891C162.632 511.792 164.437 513.172 164.514 513.23C164.777 513.435 164.82 513.812 164.609 514.07C164.399 514.328 164.015 514.372 163.752 514.165C163.703 514.128 162.443 513.195 160.718 513.975C159.229 514.649 157.97 516.63 157.957 516.65C157.872 516.787 157.739 516.877 157.592 516.915Z" fill="white"/>
<path d="M161.76 520.104C161.604 520.144 161.434 520.124 161.286 520.034C160.999 519.862 160.91 519.493 161.087 519.212C161.147 519.118 162.557 516.902 164.376 516.078C166.8 514.979 168.605 516.36 168.682 516.419C168.944 516.625 168.986 517.001 168.776 517.258C168.568 517.517 168.182 517.559 167.92 517.352C167.87 517.316 166.61 516.384 164.886 517.163C163.397 517.837 162.137 519.819 162.125 519.838C162.038 519.975 161.906 520.065 161.76 520.104Z" fill="white"/>
<path d="M163.615 266.448C163.615 266.448 170.09 276.475 169.38 286.922C168.671 297.368 170.335 309.426 160.987 308.897C151.64 308.366 134.969 312.644 129.668 304.508C124.37 296.372 163.615 266.448 163.615 266.448Z" fill="#343054"/>
<path d="M166.015 284.887C166.015 284.887 167.695 300.029 160.511 304.198C153.325 308.366 148.126 303.713 148.126 303.713C148.126 303.713 163.271 282.607 166.015 284.887Z" fill="#1C1A2C"/>
<path d="M136.17 284.816C136.17 284.816 133.59 281.377 131.672 284.221C129.754 287.066 132.466 295.468 137.162 293.417L136.17 284.816Z" fill="#F36156"/>
<path d="M136.138 290.82C135.964 290.82 135.804 290.705 135.755 290.53C135.026 287.936 132.34 286.885 132.313 286.874C132.108 286.796 132.005 286.567 132.083 286.363C132.161 286.158 132.39 286.055 132.594 286.133C132.72 286.18 135.68 287.329 136.519 290.316C136.578 290.527 136.456 290.746 136.244 290.806L136.138 290.82Z" fill="#F04147"/>
<path d="M133.424 289.513L133.21 289.45C133.026 289.331 132.973 289.086 133.091 288.901C133.111 288.871 133.586 288.146 134.581 287.701C134.78 287.611 135.016 287.701 135.106 287.9C135.194 288.101 135.106 288.336 134.905 288.425C134.136 288.769 133.762 289.326 133.758 289.331C133.682 289.45 133.555 289.513 133.424 289.513Z" fill="#F04147"/>
<path d="M162.757 284.816C162.757 284.816 165.337 281.377 167.256 284.221C169.175 287.066 166.462 295.468 161.765 293.417L162.757 284.816Z" fill="#F36156"/>
<path d="M162.791 290.82C162.965 290.82 163.124 290.705 163.172 290.53C163.901 287.936 166.588 286.885 166.615 286.874C166.819 286.796 166.922 286.567 166.844 286.363C166.768 286.158 166.538 286.055 166.333 286.133C166.208 286.18 163.247 287.329 162.408 290.316C162.349 290.527 162.473 290.746 162.683 290.806L162.791 290.82Z" fill="#F04147"/>
<path d="M165.503 289.513L165.718 289.45C165.902 289.331 165.955 289.086 165.836 288.901C165.817 288.871 165.342 288.146 164.347 287.701C164.148 287.611 163.912 287.701 163.823 287.9C163.733 288.101 163.823 288.336 164.023 288.425C164.792 288.769 165.166 289.326 165.169 289.331C165.245 289.45 165.373 289.513 165.503 289.513Z" fill="#F04147"/>
<path d="M155.814 300.542V308.897C155.814 308.897 153.323 313.152 149.953 313.441C146.587 313.735 143.597 309.778 143.597 309.778V301.129L155.814 300.542Z" fill="#F49477"/>
<path d="M155.814 300.542V304.249C153.553 306.758 149.539 307.646 143.598 306.77L143.597 301.129L155.814 300.542Z" fill="#F36156"/>
<path d="M164.623 279.085C164.468 282.332 164.159 286.392 163.54 289.639C163.385 290.449 163.21 291.211 163.015 291.894C161.257 298.05 156.859 308.608 144.548 304.21C139.11 302.269 136.59 296.212 135.467 290.052C134.704 285.869 134.59 281.641 134.645 278.621C134.704 275.537 136.387 272.719 139.07 271.199C146.338 267.079 154.006 268.615 159.054 270.556C162.559 271.901 164.801 275.342 164.623 279.085Z" fill="#F49477"/>
<path d="M144.042 286.106C144.042 286.999 143.582 287.722 143.015 287.722C142.448 287.722 141.989 286.999 141.989 286.106C141.989 285.215 142.448 284.492 143.015 284.492C143.582 284.492 144.042 285.215 144.042 286.106Z" fill="#343054"/>
<path d="M156.72 286.106C156.72 286.999 156.26 287.722 155.693 287.722C155.126 287.722 154.667 286.999 154.667 286.106C154.667 285.215 155.126 284.492 155.693 284.492C156.26 284.492 156.72 285.215 156.72 286.106Z" fill="#343054"/>
<path d="M140.982 280.734C141.835 280.493 143.557 280.081 145.374 280.075C145.852 280.075 146.218 280.5 146.134 280.97L146.131 280.981C146.064 281.357 145.727 281.623 145.346 281.605C144.11 281.548 140.864 281.722 139.332 282.343C139.301 282.076 139.459 281.785 139.681 281.526C140.02 281.134 140.483 280.874 140.982 280.734Z" fill="#343054"/>
<path d="M157.57 280.766C156.716 280.525 154.994 280.114 153.178 280.109C152.7 280.108 152.334 280.532 152.418 281.003L152.42 281.015C152.488 281.39 152.825 281.657 153.205 281.639C154.441 281.581 157.687 281.755 159.22 282.376C159.25 282.109 159.092 281.818 158.869 281.558C158.532 281.167 158.068 280.907 157.57 280.766Z" fill="#343054"/>
<path d="M149.602 292.675C149.298 292.675 148.993 292.621 148.739 292.469C148.507 292.33 148.218 292.049 148.162 291.5C148.01 290.041 148.384 285.469 148.4 285.275C148.418 285.056 148.609 284.893 148.828 284.911C149.047 284.929 149.209 285.121 149.191 285.34C149.188 285.386 148.807 290.033 148.951 291.419C148.976 291.659 149.075 291.745 149.147 291.787C149.519 292.01 150.379 291.782 150.738 291.637C150.942 291.554 151.174 291.652 151.255 291.854C151.338 292.057 151.241 292.289 151.038 292.373C150.936 292.415 150.271 292.675 149.602 292.675Z" fill="#F36156"/>
<path d="M144.562 295.181C144.862 296.69 145.859 299.468 149.219 299.468C152.586 299.468 153.53 296.93 153.856 295.181H144.562Z" fill="white"/>
<path d="M149.171 301.784C148.2 301.784 147.344 301.262 147.308 301.24C147.122 301.124 147.065 300.88 147.18 300.694C147.295 300.508 147.539 300.45 147.725 300.564C147.732 300.569 148.43 300.991 149.171 300.991C149.971 300.991 150.688 300.566 150.695 300.563C150.883 300.45 151.126 300.51 151.24 300.698C151.351 300.886 151.292 301.128 151.105 301.242C151.069 301.265 150.198 301.784 149.171 301.784Z" fill="#F36156"/>
<path d="M166.222 278.438C166.093 278.8 165.739 279.031 165.265 279.17C165.3 280.046 165.208 281.099 165.122 282.108C164.632 287.845 163.186 288.852 162.858 287.434C162.642 286.492 162.655 281.089 162.758 279.328C161.626 279.252 160.657 279.064 160.657 279.064L159.326 273.494L158.861 278.995C156.865 279.689 152.208 278.576 152.208 278.576L150.647 273.088L149.68 278.37C146.687 279.827 142.945 278.856 142.945 278.856L142.086 273.16L140.1 278.856C140.1 278.856 133.715 281.148 133.645 278.856C133.602 277.523 134.579 273.769 135.404 270.86C136.303 267.688 138.388 265.008 141.205 263.497C149.126 259.246 157.504 261.506 160.378 263.224C166.471 266.861 166.222 278.438 166.222 278.438Z" fill="#343054"/>
<path d="M137.162 266.872C137.162 266.872 131.905 273.125 130.175 284.292C128.446 295.46 126.05 303.713 132.78 307.4C140.064 311.39 139.434 303.205 139.328 300.98C139.224 298.756 133.027 292.675 137.162 275.548C138.498 270.018 137.162 266.872 137.162 266.872Z" fill="#343054"/>
<path d="M135.934 289.95V289.963C135.936 290.046 135.942 290.49 135.974 291.185C135.99 291.616 136.016 292.14 136.056 292.736C136.303 296.498 137.035 302.996 139.186 305.25C140.034 306.142 141.671 306.589 143.598 306.77V303.814C141.568 302.85 139.984 301.267 138.757 299.32C137.999 297.677 136.692 295.106 136.08 291.065L135.934 289.95Z" fill="#1C1A2C"/>
<path d="M164.718 293.604C164.718 294.119 164.302 294.535 163.788 294.535C163.274 294.535 162.858 294.119 162.858 293.604C162.858 293.092 163.274 292.675 163.788 292.675C164.302 292.675 164.718 293.092 164.718 293.604Z" fill="white"/>
<path d="M444.899 213.526H422.089C420.338 213.526 418.92 212.105 418.92 210.354V187.546C418.92 185.795 420.338 184.375 422.089 184.375H444.899C446.651 184.375 448.07 185.795 448.07 187.546V210.354C448.07 212.105 446.651 213.526 444.899 213.526Z" fill="#FFB900"/>
<path opacity="0.3" d="M443.42 198.95C443.42 201.352 442.567 203.552 441.148 205.27C439.327 207.472 436.576 208.876 433.494 208.876C430.415 208.876 427.663 207.473 425.842 205.271C424.423 203.554 423.57 201.352 423.57 198.95C423.57 193.468 428.014 189.025 433.494 189.025C438.976 189.025 443.42 193.468 443.42 198.95Z" fill="white"/>
<path d="M441.148 205.27C439.327 207.472 436.576 208.876 433.494 208.876C430.415 208.876 427.663 207.473 425.842 205.271L425.975 205.007C426.19 204.582 426.487 204.21 426.845 203.91C427.201 203.609 427.619 203.38 428.075 203.242C429.69 202.748 431.19 202.249 432.03 200.806C431.008 200.324 430.325 199.361 430.039 198.682C428.916 198.922 428.11 196.843 428.71 196.292C428.938 196.084 429.17 196.025 429.373 196.037C429.558 193.924 431.332 192.035 433.494 192.035C435.656 192.035 437.431 193.924 437.617 196.037C437.82 196.025 438.052 196.084 438.278 196.292C438.88 196.843 438.073 198.922 436.95 198.682C436.705 199.44 435.863 200.354 435.103 200.675C435.944 202.118 437.298 202.748 438.916 203.242C439.372 203.38 439.788 203.609 440.144 203.91C440.502 204.21 440.8 204.582 441.014 205.007L441.148 205.27Z" fill="white"/>
<path d="M545.118 234.098C547.579 234.098 549.583 232.096 549.583 229.632C549.583 227.17 547.579 225.167 545.118 225.167C542.656 225.167 540.652 227.17 540.652 229.632C540.652 232.096 542.656 234.098 545.118 234.098ZM545.118 223.126C548.706 223.126 551.626 226.044 551.626 229.632C551.626 233.221 548.706 236.14 545.118 236.14C541.529 236.14 538.61 233.221 538.61 229.632C538.61 226.044 541.529 223.126 545.118 223.126Z" fill="#0F69FA"/>
<path d="M521.693 211.27C524.155 211.27 526.158 209.267 526.158 206.803C526.158 204.342 524.155 202.338 521.693 202.338C519.229 202.338 517.226 204.342 517.226 206.803C517.226 209.267 519.229 211.27 521.693 211.27ZM521.693 200.297C525.28 200.297 528.199 203.216 528.199 206.803C528.199 210.392 525.28 213.311 521.693 213.311C518.105 213.311 515.185 210.392 515.185 206.803C515.185 203.216 518.105 200.297 521.693 200.297Z" fill="#00E19B"/>
<path d="M513.653 179.152C514.217 179.152 514.674 179.609 514.674 180.173V184.674C514.674 185.238 514.217 185.695 513.653 185.695C513.089 185.695 512.632 185.238 512.632 184.674V180.173C512.632 179.609 513.089 179.152 513.653 179.152Z" fill="#0F69FA"/>
<path d="M513.653 171.275C514.217 171.275 514.674 171.732 514.674 172.296V176.797C514.674 177.36 514.217 177.817 513.653 177.817C513.089 177.817 512.632 177.36 512.632 176.797V172.296C512.632 171.732 513.089 171.275 513.653 171.275Z" fill="#0F69FA"/>
<path d="M507.335 177.464H511.378C511.942 177.464 512.399 177.92 512.399 178.484C512.399 179.048 511.942 179.506 511.378 179.506H507.335C506.772 179.506 506.315 179.048 506.315 178.484C506.315 177.92 506.772 177.464 507.335 177.464Z" fill="#0F69FA"/>
<path d="M515.927 177.464H519.972C520.535 177.464 520.992 177.92 520.992 178.484C520.992 179.048 520.535 179.506 519.972 179.506H515.927C515.364 179.506 514.907 179.048 514.907 178.484C514.907 177.92 515.364 177.464 515.927 177.464Z" fill="#0F69FA"/>
<path d="M549.583 204.374C550.147 204.374 550.604 204.832 550.604 205.396V209.897C550.604 210.46 550.147 210.917 549.583 210.917C549.02 210.917 548.563 210.46 548.563 209.897V205.396C548.563 204.832 549.02 204.374 549.583 204.374Z" fill="#FFB900"/>
<path d="M549.583 196.498C550.147 196.498 550.604 196.954 550.604 197.518V202.019C550.604 202.583 550.147 203.04 549.583 203.04C549.02 203.04 548.563 202.583 548.563 202.019V197.518C548.563 196.954 549.02 196.498 549.583 196.498Z" fill="#FFB900"/>
<path d="M543.265 202.686H547.309C547.873 202.686 548.329 203.143 548.329 203.707C548.329 204.271 547.873 204.727 547.309 204.727H543.265C542.701 204.727 542.244 204.271 542.244 203.707C542.244 203.143 542.701 202.686 543.265 202.686Z" fill="#FFB900"/>
<path d="M551.858 202.686H555.901C556.465 202.686 556.922 203.143 556.922 203.707C556.922 204.271 556.465 204.727 555.901 204.727H551.858C551.294 204.727 550.837 204.271 550.837 203.707C550.837 203.143 551.294 202.686 551.858 202.686Z" fill="#FFB900"/>
<path d="M142.146 142.076C139.682 142.076 137.68 144.08 137.68 146.543C137.68 149.005 139.682 151.008 142.146 151.008C144.607 151.008 146.611 149.005 146.611 146.543C146.611 144.08 144.607 142.076 142.146 142.076ZM142.146 140.035C145.733 140.035 148.652 142.955 148.652 146.543C148.652 150.131 145.733 153.05 142.146 153.05C138.557 153.05 135.638 150.131 135.638 146.543C135.638 142.955 138.557 140.035 142.146 140.035Z" fill="#00E19B"/>
<path d="M118.447 120.583C115.984 120.583 113.981 122.586 113.981 125.048C113.981 127.511 115.984 129.515 118.447 129.515C120.908 129.515 122.912 127.511 122.912 125.048C122.912 122.586 120.908 120.583 118.447 120.583ZM118.447 118.542C122.034 118.542 124.954 121.46 124.954 125.048C124.954 128.636 122.034 131.556 118.447 131.556C114.858 131.556 111.939 128.636 111.939 125.048C111.939 121.46 114.858 118.542 118.447 118.542Z" fill="#FFB900"/>
<path d="M109.863 155.737C109.863 156.3 110.319 156.757 110.883 156.757H115.385C115.948 156.757 116.405 156.3 116.405 155.737C116.405 155.173 115.948 154.716 115.385 154.716H110.883C110.319 154.716 109.863 155.173 109.863 155.737Z" fill="#0F69FA"/>
<path d="M101.985 155.737C101.985 156.3 102.443 156.757 103.006 156.757H107.507C108.071 156.757 108.528 156.3 108.528 155.737C108.528 155.173 108.071 154.716 107.507 154.716H103.006C102.443 154.716 101.985 155.173 101.985 155.737Z" fill="#0F69FA"/>
<path d="M108.174 149.418V153.462C108.174 154.025 108.631 154.482 109.195 154.482C109.759 154.482 110.216 154.025 110.216 153.462V149.418C110.216 148.855 109.759 148.398 109.195 148.398C108.631 148.398 108.174 148.855 108.174 149.418Z" fill="#0F69FA"/>
<path d="M108.174 158.011V162.055C108.174 162.618 108.631 163.075 109.195 163.075C109.759 163.075 110.216 162.618 110.216 162.055V158.011C110.216 157.448 109.759 156.991 109.195 156.991C108.631 156.991 108.174 157.448 108.174 158.011Z" fill="#0F69FA"/>
<path d="M157.528 120.583C157.528 121.147 157.985 121.603 158.549 121.603H163.05C163.614 121.603 164.071 121.147 164.071 120.583C164.071 120.019 163.614 119.562 163.05 119.562H158.549C157.985 119.562 157.528 120.019 157.528 120.583Z" fill="#FFB900"/>
<path d="M149.651 120.583C149.651 121.147 150.108 121.603 150.672 121.603H155.173C155.736 121.603 156.193 121.147 156.193 120.583C156.193 120.019 155.736 119.562 155.173 119.562H150.672C150.108 119.562 149.651 120.019 149.651 120.583Z" fill="#FFB900"/>
<path d="M155.84 114.265V118.308C155.84 118.872 156.298 119.329 156.86 119.329C157.424 119.329 157.882 118.872 157.882 118.308V114.265C157.882 113.701 157.424 113.244 156.86 113.244C156.298 113.244 155.84 113.701 155.84 114.265Z" fill="#FFB900"/>
<path d="M155.84 122.857V126.901C155.84 127.465 156.298 127.922 156.86 127.922C157.424 127.922 157.882 127.465 157.882 126.901V122.857C157.882 122.294 157.424 121.837 156.86 121.837C156.298 121.837 155.84 122.294 155.84 122.857Z" fill="#FFB900"/>
<path d="M428.86 151.997C428.996 152.029 429.143 152.03 429.288 151.996C430.834 151.615 431.729 151.462 431.737 151.459C432.206 151.38 432.516 150.96 432.431 150.521C432.347 150.082 431.899 149.79 431.431 149.869C431.393 149.875 430.47 150.034 428.852 150.431C428.392 150.545 428.117 150.986 428.237 151.418C428.321 151.714 428.566 151.927 428.86 151.997Z" fill="#CFE6F4"/>
<path d="M378.846 189.038C378.044 190.411 377.272 191.834 376.55 193.27C376.372 193.625 375.952 193.801 375.56 193.708L375.403 193.655C374.975 193.464 374.79 192.983 374.993 192.578C375.728 191.114 376.518 189.662 377.336 188.261C377.564 187.87 378.085 187.726 378.505 187.94C378.923 188.155 379.075 188.647 378.846 189.038Z" fill="#CFE6F4"/>
<path d="M374.526 197.623C373.906 199.073 373.315 200.573 372.773 202.08C372.626 202.482 372.178 202.708 371.746 202.604L371.68 202.586C371.23 202.444 370.988 201.985 371.141 201.562C371.694 200.026 372.296 198.498 372.929 197.02C373.106 196.606 373.609 196.405 374.05 196.572C374.49 196.738 374.704 197.208 374.526 197.623Z" fill="#CFE6F4"/>
<path d="M367.226 221.297C366.81 221.198 366.529 220.82 366.584 220.41C366.805 218.802 367.064 217.193 367.356 215.628C367.438 215.189 367.884 214.895 368.353 214.972C368.827 215.051 369.134 215.467 369.053 215.906C368.766 217.447 368.51 219.032 368.293 220.616C368.232 221.059 367.801 221.372 367.33 221.315L367.226 221.297Z" fill="#CFE6F4"/>
<path d="M370.684 205.626C371.142 205.747 371.41 206.192 371.281 206.623C371.071 207.332 370.867 208.05 370.676 208.758C370.457 209.574 370.243 210.408 370.045 211.237C369.941 211.673 369.48 211.946 369.017 211.849L368.993 211.843C368.543 211.736 368.263 211.31 368.365 210.882C368.568 210.04 368.783 209.19 369.007 208.361C369.202 207.642 369.408 206.91 369.624 206.188C369.749 205.764 370.212 205.514 370.663 205.622L370.684 205.626Z" fill="#CFE6F4"/>
<path d="M381.414 184.949C381.21 185.251 380.826 185.383 380.476 185.3L380.226 185.2C379.825 184.961 379.704 184.462 379.958 184.084C380.876 182.722 381.851 181.37 382.855 180.07C383.134 179.707 383.672 179.627 384.058 179.89C384.443 180.151 384.528 180.656 384.25 181.018C383.267 182.291 382.313 183.613 381.414 184.949Z" fill="#CFE6F4"/>
<path d="M424.457 153.372C422.886 153.875 421.291 154.44 419.719 155.05C419.54 155.119 419.353 155.128 419.179 155.087C418.925 155.026 418.703 154.856 418.595 154.612C418.414 154.199 418.622 153.726 419.062 153.556C420.667 152.933 422.296 152.357 423.9 151.842C424.35 151.698 424.84 151.924 424.993 152.345C425.147 152.767 424.908 153.227 424.457 153.372Z" fill="#CFE6F4"/>
<path d="M410.602 159.188C410.401 159.293 410.176 159.314 409.97 159.266C409.75 159.214 409.55 159.078 409.429 158.876C409.199 158.486 409.346 157.994 409.763 157.776C411.26 156.992 412.802 156.239 414.346 155.538C414.774 155.345 415.288 155.512 415.495 155.914C415.703 156.316 415.523 156.799 415.094 156.994C413.581 157.68 412.07 158.419 410.602 159.188Z" fill="#CFE6F4"/>
<path d="M394.273 170.351C394.05 170.546 393.746 170.61 393.473 170.545C393.318 170.508 393.173 170.431 393.056 170.314C392.73 169.988 392.748 169.476 393.096 169.171C394.345 168.073 395.651 166.996 396.976 165.968C397.342 165.684 397.884 165.732 398.188 166.076C398.49 166.421 398.438 166.931 398.072 167.215C396.775 168.221 395.496 169.276 394.273 170.351Z" fill="#CFE6F4"/>
<path d="M402.072 164.304C401.857 164.452 401.592 164.491 401.353 164.435C401.166 164.389 400.992 164.286 400.87 164.126C400.589 163.765 400.675 163.26 401.059 162.997C402.44 162.054 403.876 161.135 405.328 160.265C405.728 160.025 406.261 160.135 406.517 160.511C406.774 160.888 406.656 161.387 406.255 161.627C404.832 162.48 403.426 163.38 402.072 164.304Z" fill="#CFE6F4"/>
<path d="M387.346 177.265C387.126 177.514 386.782 177.607 386.471 177.533C386.351 177.505 386.234 177.451 386.132 177.373C385.768 177.088 385.716 176.578 386.02 176.234C387.112 174.994 388.262 173.771 389.436 172.597C389.762 172.272 390.307 172.256 390.654 172.562C391.001 172.868 391.018 173.38 390.691 173.705C389.542 174.853 388.416 176.051 387.346 177.265Z" fill="#CFE6F4"/>
<path d="M429.716 146.526L427.975 133.054L473.617 139.6L429.716 146.526Z" fill="#0F69FA"/>
<path d="M429.716 146.526L427.975 133.054L473.617 139.6L429.716 146.526Z" fill="white" fill-opacity="0.25"/>
<path d="M473.617 139.598L431.454 149.956L431.342 149.984L429.224 152.412L429.716 146.526L473.617 139.598Z" fill="#3A65B9"/>
<path d="M429.224 152.412L433.014 152.365L431.342 149.984L429.224 152.412Z" fill="#3751AB"/>
<path d="M436.648 148.68L431.341 149.984L439.973 162.274L473.617 139.6L436.648 148.68Z" fill="#0F69FA"/>
<path d="M436.648 148.68L431.341 149.984L439.973 162.274L473.617 139.6L436.648 148.68Z" fill="white" fill-opacity="0.25"/>
</svg>
